<svg width="26" height="26" viewBox="0 0 26 26" fill="none" xmlns="http://www.w3.org/2000/svg">
<path d="M20.1247 0.53125C20.5983 0.53125 21.0525 0.706845 21.3874 1.01941C21.7223 1.33197 21.9104 1.75589 21.9104 2.19792V23.8646H24.589C24.8258 23.8646 25.0529 23.9524 25.2204 24.1087C25.3878 24.2649 25.4819 24.4769 25.4819 24.6979C25.4819 24.9189 25.3878 25.1309 25.2204 25.2872C25.0529 25.4435 24.8258 25.5312 24.589 25.5312H1.37473C1.13793 25.5312 0.910828 25.4435 0.743384 25.2872C0.575941 25.1309 0.481873 24.9189 0.481873 24.6979C0.481873 24.4769 0.575941 24.2649 0.743384 24.1087C0.910828 23.9524 1.13793 23.8646 1.37473 23.8646H4.0533V2.19792C4.0533 1.75589 4.24144 1.33197 4.57632 1.01941C4.91121 0.706845 5.36541 0.53125 5.83902 0.53125H20.1247ZM16.5533 15.5312C17.0269 15.5312 17.4811 15.3557 17.816 15.0431C18.1509 14.7305 18.339 14.3066 18.339 13.8646C18.339 13.4226 18.1509 12.9986 17.816 12.6861C17.4811 12.3735 17.0269 12.1979 16.5533 12.1979C16.0797 12.1979 15.6255 12.3735 15.2906 12.6861C14.9557 12.9986 14.7676 13.4226 14.7676 13.8646C14.7676 14.3066 14.9557 14.7305 15.2906 15.0431C15.6255 15.3557 16.0797 15.5312 16.5533 15.5312V15.5312Z" fill="white"/>
</svg>
