<svg width="26" height="26" viewBox="0 0 26 26" fill="none" xmlns="http://www.w3.org/2000/svg">
<path d="M0.313599 12.9121C0.313599 11.287 0.633687 9.67781 1.25559 8.1764C1.87749 6.675 2.78903 5.31079 3.93815 4.16166C5.08728 3.01254 6.45149 2.101 7.95289 1.4791C9.4543 0.857198 11.0635 0.537109 12.6886 0.537109C14.3137 0.537109 15.9229 0.857198 17.4243 1.4791C18.9257 2.101 20.2899 3.01254 21.439 4.16166C22.5882 5.31079 23.4997 6.675 24.1216 8.1764C24.7435 9.67781 25.0636 11.287 25.0636 12.9121C25.0636 16.1942 23.7598 19.3418 21.439 21.6626C19.1183 23.9833 15.9707 25.2871 12.6886 25.2871C9.40654 25.2871 6.25891 23.9833 3.93815 21.6626C1.61739 19.3418 0.313599 16.1942 0.313599 12.9121V12.9121ZM12.6886 6.72461C12.4151 6.72461 12.1528 6.83326 11.9594 7.02666C11.766 7.22005 11.6573 7.48235 11.6573 7.75586V11.8809H7.53235C7.25884 11.8809 6.99654 11.9895 6.80314 12.1829C6.60975 12.3763 6.5011 12.6386 6.5011 12.9121C6.5011 13.1856 6.60975 13.4479 6.80314 13.6413C6.99654 13.8347 7.25884 13.9434 7.53235 13.9434H11.6573V18.0684C11.6573 18.3419 11.766 18.6042 11.9594 18.7976C12.1528 18.991 12.4151 19.0996 12.6886 19.0996C12.9621 19.0996 13.2244 18.991 13.4178 18.7976C13.6112 18.6042 13.7198 18.3419 13.7198 18.0684V13.9434H17.8448C18.1184 13.9434 18.3807 13.8347 18.5741 13.6413C18.7675 13.4479 18.8761 13.1856 18.8761 12.9121C18.8761 12.6386 18.7675 12.3763 18.5741 12.1829C18.3807 11.9895 18.1184 11.8809 17.8448 11.8809H13.7198V7.75586C13.7198 7.48235 13.6112 7.22005 13.4178 7.02666C13.2244 6.83326 12.9621 6.72461 12.6886 6.72461Z" fill="white"/>
</svg>
