<svg width="33" height="33" viewBox="0 0 33 33" fill="none" xmlns="http://www.w3.org/2000/svg">
<path d="M23.375 15.125C23.8425 15.125 24.2962 15.18 24.75 15.2488V8.62125L14.4375 4.125L4.125 8.62125V15.3725C4.125 21.615 8.525 27.4588 14.4375 28.875C15.1938 28.6963 15.9225 28.435 16.6375 28.1188C15.6888 26.7713 15.125 25.135 15.125 23.375C15.125 18.8238 18.8238 15.125 23.375 15.125Z" fill="white"/>
<path d="M23.375 17.875C20.3362 17.875 17.875 20.3362 17.875 23.375C17.875 26.4138 20.3362 28.875 23.375 28.875C26.4138 28.875 28.875 26.4138 28.875 23.375C28.875 20.3362 26.4138 17.875 23.375 17.875ZM23.375 19.7725C24.2275 19.7725 24.915 20.4737 24.915 21.3125C24.915 22.1513 24.2138 22.8525 23.375 22.8525C22.5362 22.8525 21.835 22.1513 21.835 21.3125C21.835 20.4737 22.5225 19.7725 23.375 19.7725ZM23.375 27.1562C22.0962 27.1562 20.9825 26.5237 20.295 25.5475C20.3638 24.5575 22.3712 24.0625 23.375 24.0625C24.3788 24.0625 26.3862 24.5575 26.455 25.5475C25.7675 26.5237 24.6538 27.1562 23.375 27.1562Z" fill="white"/>
</svg>
