<svg width="24" height="25" viewBox="0 0 24 25" fill="none" xmlns="http://www.w3.org/2000/svg">
<path d="M18.75 24.2686C17.2969 24.2686 16.0586 23.7568 15.0352 22.7334C14.0117 21.71 13.5 20.4717 13.5 19.0186C13.5 17.5654 14.0117 16.3271 15.0352 15.3037C16.0586 14.2803 17.2969 13.7686 18.75 13.7686C20.2031 13.7686 21.4414 14.2803 22.4648 15.3037C23.4883 16.3271 24 17.5654 24 19.0186C24 20.4717 23.4883 21.71 22.4648 22.7334C21.4414 23.7568 20.2031 24.2686 18.75 24.2686ZM22.5 19.0186C22.5 18.2373 22.2734 17.5264 21.8203 16.8857L16.6172 22.0889C17.2578 22.542 17.9688 22.7686 18.75 22.7686C19.7812 22.7686 20.6641 22.4014 21.3984 21.667C22.1328 20.9326 22.5 20.0498 22.5 19.0186ZM15 19.0186C15 19.7998 15.2266 20.5107 15.6797 21.1514L20.8828 15.9482C20.2422 15.4951 19.5312 15.2686 18.75 15.2686C17.7188 15.2686 16.8359 15.6357 16.1016 16.3701C15.3672 17.1045 15 17.9873 15 19.0186ZM12 19.0186C12 20.0498 12.2227 21.0225 12.668 21.9365C13.1133 22.8506 13.7266 23.6279 14.5078 24.2686H10.2188L8.32031 24.2451L6.28125 24.1865L4.40625 24.0811L2.63672 23.8818L1.28906 23.6006L0.316406 23.2139L0 22.6982C0.03125 21.3232 0.890625 20.1084 2.57812 19.0537C4.26562 17.999 6.40625 17.2998 9 16.9561V16.1826C8.1875 15.8232 7.48438 15.3154 6.89062 14.6592C6.29687 14.0029 5.82813 13.2334 5.48438 12.3506C5.14062 11.4678 4.89062 10.5225 4.73438 9.51465C4.57813 8.50684 4.5 7.4248 4.5 6.26855C4.5 5.25293 4.69531 4.3584 5.08594 3.58496C5.47656 2.81152 6.01562 2.18652 6.70312 1.70996C7.39063 1.2334 8.17969 0.874023 9.07031 0.631836C9.96094 0.389648 10.9375 0.268555 12 0.268555C13.0625 0.268555 14.0391 0.389648 14.9297 0.631836C15.8203 0.874023 16.6094 1.2334 17.2969 1.70996C17.9844 2.18652 18.5234 2.81152 18.9141 3.58496C19.3047 4.3584 19.5 5.25293 19.5 6.26855C19.5 8.70605 19.2109 10.7061 18.6328 12.2686C16.7891 12.2998 15.2227 12.9717 13.9336 14.2842C12.6445 15.5967 12 17.1748 12 19.0186Z" fill="#40B0F0"/>
</svg>
