<svg width="27" height="27" viewBox="0 0 27 27" fill="none" xmlns="http://www.w3.org/2000/svg">
<path d="M0.580792 21.5018L0.0940418 24.9049C0.0639603 25.1161 0.083448 25.3315 0.150963 25.5339C0.218478 25.7363 0.332167 25.9202 0.483035 26.071C0.633904 26.2219 0.817812 26.3356 1.02021 26.4031C1.22261 26.4706 1.43794 26.4901 1.64917 26.46L5.05229 25.9733C5.56792 25.9004 6.86042 22.4299 6.86042 22.4299C6.86042 22.4299 7.50942 22.9868 7.77479 23.0707C8.34129 23.2494 8.89267 22.6939 9.07829 22.1302L9.61042 19.6937C9.61042 19.6937 10.4038 20.0952 10.6912 20.1543C11.0569 20.2299 11.4117 20.0044 11.6633 19.7514C11.8145 19.6007 11.928 19.4165 11.9947 19.2138L12.3604 16.9437C12.3604 16.9437 13.2885 17.2008 13.6062 17.2379C13.9678 17.2792 14.3198 17.0949 14.5783 16.835L16.143 15.2717C17.4676 15.7009 18.8849 15.7562 20.2389 15.4316C21.5928 15.107 22.831 14.415 23.8169 13.4319C25.2327 12.0124 26.0278 10.0894 26.0278 8.08453C26.0278 6.07967 25.2327 4.15663 23.8169 2.73715C22.3974 1.32134 20.4744 0.526245 18.4695 0.526245C16.4647 0.526245 14.5416 1.32134 13.1222 2.73715C12.1388 3.72292 11.4466 4.96106 11.122 6.3151C10.7974 7.66914 10.8529 9.08652 11.2824 10.411L0.968542 20.7235C0.75802 20.9338 0.621878 21.2071 0.580792 21.5018V21.5018ZM21.3034 5.25065C22.0536 6.00301 22.4748 7.0221 22.4748 8.08453C22.4748 9.14696 22.0536 10.166 21.3034 10.9184L15.6357 5.25065C16.388 4.50051 17.4071 4.07927 18.4695 4.07927C19.532 4.07927 20.5511 4.50051 21.3034 5.25065Z" fill="#40B0F0"/>
</svg>
