<svg width="1034" height="470" viewBox="0 0 1034 470" fill="none" xmlns="http://www.w3.org/2000/svg">
<path d="M699.056 51.8V279.3H657.656V51.8H597.956V10.4H757.756V51.8H699.056Z" fill="white"/>
<path d="M163.856 260.4C148.656 274.5 129.656 281.4 107.656 281.4C59.156 281.4 35.056 256.3 17.156 214.4L55.156 196.7C65.556 223 75.756 239.6 107.556 239.6C128.356 239.6 145.256 226.8 145.256 205C145.256 190.6 137.956 177.3 120.356 165.1L66.556 132.9C45.056 118.3 32.556 99.3 32.556 76.4C32.556 56.4 39.656 39.7 54.256 27.1C67.956 14.8 84.856 9 104.456 9C142.556 9 160.956 28.9 177.756 59.8L140.756 78C131.956 62.7 124.656 50.4 104.456 50.4C94.456 50.4 87.456 52.8 82.356 57C77.156 61.5 74.356 67.5 74.356 76.4C74.356 82.1 79.556 91.3 98.956 103.7C131.556 124.3 150.356 136.5 153.856 139.3C175.256 157.4 186.756 179.5 186.756 205C186.756 227.3 179.256 246.1 163.856 260.4Z" fill="white"/>
<path d="M470.756 279.3V10.4H512.156V237.6H574.256V279.3H470.756Z" fill="white"/>
<path fill-rule="evenodd" clip-rule="evenodd" d="M981.756 242.4C958.156 269.1 928.356 282.7 893.156 282.7C858.056 282.7 828.356 269.1 804.556 242.4C780.956 215.6 769.356 182.9 769.356 145C769.356 74.2 817.756 7.60001 893.056 7.60001C968.556 7.60001 1017.16 73.9 1017.16 145C1017.16 182.9 1005.36 215.6 981.756 242.4ZM953.156 75.9C937.356 57.9 917.556 49 893.156 49C839.656 49 808.656 95.3 808.656 145C808.656 194.7 839.556 241 893.156 241C917.556 241 937.356 232.1 953.156 214.1C969.256 196 977.556 173.2 977.556 145C977.556 116.9 969.256 94.1 953.156 75.9Z" fill="white"/>
<path d="M394.456 279.3L323.756 100.4L253.456 279.3H210.256L323.756 8.10001L437.656 279.3H394.456Z" fill="white"/>
<path d="M291.856 223.2L324.156 306.7L356.056 223.2H291.856Z" fill="white"/>
<path fill-rule="evenodd" clip-rule="evenodd" d="M22.556 436.8V365.3H17.256V436.8H22.556ZM22.556 351.8V337.5H17.256V351.8H22.556Z" fill="white"/>
<path d="M51.856 436.8H57.156V398.1C57.156 380.6 66.856 368.2 82.856 368.2C102.356 368.2 103.156 384.2 103.156 391.6V436.8H108.456V392.6C108.456 383.8 108.156 363.7 83.056 363.7C71.956 363.7 61.056 370 57.456 380.7H57.156V365.4H51.856V436.8V436.8Z" fill="white"/>
<path d="M133.656 413C134.056 429.7 146.356 438.4 162.556 438.4C175.056 438.4 190.456 434.1 190.456 418.7C190.456 403.7 179.356 400.3 165.156 397.7C153.656 395.2 141.356 393.4 141.356 382C141.356 371.9 152.156 368.2 161.956 368.2C173.956 368.2 182.956 373.5 183.056 386.4H188.356C188.356 370.1 177.056 363.6 161.956 363.6C149.856 363.6 136.056 367.8 136.056 382C136.056 396.6 148.256 399.8 160.656 402.3C172.856 404.8 185.156 406.6 185.156 418.7C185.156 431.1 171.856 433.9 162.456 433.9C149.556 433.9 139.656 426.3 138.856 413H133.656V413Z" fill="white"/>
<path fill-rule="evenodd" clip-rule="evenodd" d="M248.656 433.9C228.456 433.9 222.556 418.2 222.556 401.2C222.556 384.2 229.656 368.2 248.656 368.2C267.856 368.2 275.456 384.9 275.456 401.2C275.456 418.8 267.256 433.9 248.656 433.9ZM222.356 365.3H217.056V462.4H222.356V421.9H222.656C226.856 433.4 236.856 438.5 248.656 438.5C270.456 438.5 280.756 422.9 280.756 401.2C280.756 381 270.556 363.7 248.656 363.7C232.956 363.7 224.856 374.7 222.656 381.8H222.356V365.3Z" fill="white"/>
<path fill-rule="evenodd" clip-rule="evenodd" d="M312.156 436.8V365.3H306.856V436.8H312.156ZM312.156 351.8V337.5H306.856V351.8H312.156Z" fill="white"/>
<path d="M346.756 365.3H341.456V436.8H346.756V397.7C347.356 387 349.556 382.5 354.856 377.1C361.256 370.8 369.056 369.4 374.556 370.1V364.8C361.656 364.2 349.956 371.8 347.156 381.1H346.756V365.3V365.3Z" fill="white"/>
<path fill-rule="evenodd" clip-rule="evenodd" d="M452.356 401.7C453.356 381.3 443.356 363.6 420.956 363.6C399.356 363.6 389.156 382.7 389.356 402.3C389.056 422 400.056 438.5 420.956 438.5C437.956 438.5 449.056 429.3 451.856 412.6H446.556C444.056 425.8 434.456 433.9 420.956 433.9C403.256 433.9 394.356 418.6 394.656 401.8H452.356V401.7ZM394.656 397.2C395.756 383 405.056 368.3 420.956 368.3C437.356 368.3 446.856 382.2 447.056 397.2H394.656Z" fill="white"/>
<path fill-rule="evenodd" clip-rule="evenodd" d="M505.856 433.9C487.456 433.9 479.156 418 479.156 401.2C479.156 384 486.756 368.2 505.756 368.2C524.156 368.2 532.356 384.5 532.356 401.2C532.256 417.6 523.956 433.9 505.856 433.9ZM532.456 436.8H537.756V337.5H532.456V381.3H532.156C528.356 370 517.456 363.6 505.756 363.6C484.156 363.6 473.956 380 473.956 401.1C473.956 420.8 483.256 438.4 504.856 438.4C517.656 438.4 526.456 432.7 532.256 421.4H532.556V436.8H532.456Z" fill="white"/>
<path fill-rule="evenodd" clip-rule="evenodd" d="M611.956 412.6C611.956 422.6 601.156 426.2 594.156 426.2C588.556 426.2 579.556 424.1 579.556 417C579.556 408.7 585.656 406.2 592.456 405C599.456 403.7 607.056 403.9 611.956 400.7V412.6ZM627.756 383.8C627.756 368.7 613.056 362.9 598.956 362.9C583.056 362.9 567.356 368.3 566.256 386.8H582.156C582.856 379 589.056 375.4 597.956 375.4C604.356 375.4 612.856 376.9 612.856 385.1C612.856 394.4 602.756 393.2 591.356 395.3C577.956 396.8 563.656 399.7 563.656 417.7C563.656 431.7 575.356 438.7 588.256 438.7C596.756 438.7 606.856 436.1 613.156 429.9C614.356 436.4 618.956 438.7 625.356 438.7C627.956 438.7 632.956 437.7 635.356 436.9V425.9C633.656 426.2 632.456 426.2 631.456 426.2C628.556 426.2 627.656 424.7 627.656 420.8V383.8H627.756Z" fill="white"/>
<path d="M710.556 388.9C709.056 371.2 694.856 362.9 678.156 362.9C654.556 362.9 642.656 379.9 642.656 401.6C642.656 422.7 655.056 438.7 677.556 438.7C696.056 438.7 707.556 428.4 710.556 409.8H694.656C693.156 420.1 686.756 426.2 677.556 426.2C663.756 426.2 658.556 413.5 658.556 401.6C658.556 379.8 670.056 375.5 678.256 375.5C687.056 375.5 693.456 380.2 694.656 389H710.556V388.9Z" fill="white"/>
<path d="M789.256 388.9C787.756 371.2 773.556 362.9 756.856 362.9C733.256 362.9 721.356 379.9 721.356 401.6C721.356 422.7 733.756 438.7 756.256 438.7C774.756 438.7 786.256 428.4 789.256 409.8H773.356C771.856 420.1 765.456 426.2 756.256 426.2C742.456 426.2 737.256 413.5 737.256 401.6C737.256 379.8 748.756 375.5 757.056 375.5C765.856 375.5 772.256 380.2 773.456 389H789.256V388.9Z" fill="white"/>
<path fill-rule="evenodd" clip-rule="evenodd" d="M868.756 404.9C871.356 383.3 857.456 362.9 834.856 362.9C813.456 362.9 800.056 380.4 800.056 400.9C800.056 423 812.756 438.7 835.256 438.7C850.956 438.7 864.356 429.9 867.756 414.2H852.756C849.956 422.1 844.356 426.2 835.256 426.2C822.056 426.2 815.956 416.2 815.956 404.9H868.756ZM815.856 394.5C816.256 383.8 823.756 375.4 834.756 375.4C845.456 375.4 852.256 384.4 852.856 394.5H815.856Z" fill="white"/>
<path d="M878.256 413.7C878.556 430.7 892.056 438.7 910.056 438.7C924.956 438.7 942.156 432.4 942.156 415.3C942.156 401.1 930.456 396.9 918.956 394.3C907.256 391.7 895.556 390.5 895.556 382.8C895.556 376.5 904.056 375.4 908.656 375.4C915.556 375.4 921.856 377.5 923.256 385H939.856C937.956 369 924.556 362.9 909.856 362.9C896.756 362.9 879.856 367.8 879.856 383.5C879.856 398.1 891.256 402.3 902.956 404.8C914.456 407.4 926.056 408.4 926.456 416.8C926.856 425 916.456 426.3 910.456 426.3C901.956 426.3 895.056 423 894.156 413.8H878.256V413.7Z" fill="white"/>
<path d="M951.756 413.7C952.056 430.7 965.556 438.7 983.556 438.7C998.456 438.7 1015.66 432.4 1015.66 415.3C1015.66 401.1 1003.96 396.9 992.456 394.3C980.756 391.7 969.056 390.5 969.056 382.8C969.056 376.5 977.556 375.4 982.156 375.4C989.156 375.4 995.356 377.5 996.756 385H1013.36C1011.46 369 998.056 362.9 983.356 362.9C970.256 362.9 953.356 367.8 953.356 383.5C953.356 398.1 964.756 402.3 976.456 404.8C987.956 407.4 999.556 408.4 999.956 416.8C1000.36 425 989.956 426.3 983.956 426.3C975.456 426.3 968.556 423 967.656 413.8H951.756V413.7Z" fill="white"/>
</svg>
