<svg width="26" height="26" viewBox="0 0 26 26" fill="none" xmlns="http://www.w3.org/2000/svg">
<path d="M15.7169 18.0917L19.2781 14.5305H5.98187V11.7805H19.2781L15.7169 8.21924L17.6694 6.28049L24.5444 13.1555L17.6694 20.0305L15.7169 18.0917ZM22.4819 0.780487C23.2112 0.780487 23.9107 1.07022 24.4264 1.58594C24.9421 2.10167 25.2319 2.80114 25.2319 3.53049V9.95174L22.4819 7.20174V3.53049H3.23187V22.7805H22.4819V19.1092L25.2319 16.3592V22.7805C25.2319 23.5098 24.9421 24.2093 24.4264 24.725C23.9107 25.2408 23.2112 25.5305 22.4819 25.5305H3.23187C2.50253 25.5305 1.80305 25.2408 1.28733 24.725C0.771604 24.2093 0.481873 23.5098 0.481873 22.7805V3.53049C0.481873 2.00424 1.70562 0.780487 3.23187 0.780487H22.4819Z" fill="white"/>
</svg>
