<svg width="26" height="26" viewBox="0 0 26 26" fill="none" xmlns="http://www.w3.org/2000/svg">
<path d="M6.27006 17.29C7.16883 17.6463 7.91397 18.3068 8.37544 19.1564C8.83691 20.006 8.98542 20.9906 8.79505 21.9385C8.60468 22.8864 8.08752 23.7373 7.33381 24.3428C6.5801 24.9483 5.6377 25.27 4.67106 25.2516C3.70443 25.2332 2.77493 24.876 2.04477 24.2423C1.31461 23.6086 0.830147 22.7386 0.675923 21.7842C0.5217 20.8298 0.707508 19.8515 1.20092 19.0201C1.69434 18.1887 2.46403 17.5569 3.37569 17.235V8.51751C2.45789 8.19314 1.68431 7.55474 1.19169 6.71515C0.699078 5.87556 0.519145 4.88885 0.683698 3.92942C0.848252 2.97 1.3467 2.09963 2.09093 1.47218C2.83516 0.844727 3.77725 0.500586 4.75069 0.500586C5.72412 0.500586 6.66622 0.844727 7.41045 1.47218C8.15468 2.09963 8.65313 2.97 8.81768 3.92942C8.98223 4.88885 8.8023 5.87556 8.30968 6.71515C7.81707 7.55474 7.04349 8.19314 6.12569 8.51751V12.8763C7.27519 12.0128 8.70244 11.5013 10.2507 11.5013H15.7507C16.6556 11.5013 17.5354 11.2039 18.2547 10.6548C18.974 10.1057 19.4928 9.33541 19.7313 8.46251C18.8282 8.10488 18.0802 7.4401 17.619 6.58521C17.1577 5.73032 17.0129 4.74013 17.2099 3.78896C17.407 2.83779 17.9333 1.98662 18.6961 1.3853C19.459 0.783984 20.4095 0.471071 21.3804 0.50165C22.3513 0.532229 23.2803 0.90434 24.0038 1.55247C24.7273 2.2006 25.199 3.0832 25.3358 4.04489C25.4726 5.00657 25.2657 5.98569 24.7516 6.80986C24.2375 7.63403 23.4492 8.25042 22.5253 8.55051C22.2484 10.1464 21.417 11.5934 20.1776 12.6363C18.9382 13.6792 17.3705 14.2511 15.7507 14.2513H10.2507C9.34579 14.2512 8.46596 14.5486 7.74669 15.0977C7.02741 15.6468 6.50858 16.4171 6.27006 17.29V17.29Z" fill="white"/>
</svg>
