<svg width="28" height="24" viewBox="0 0 28 24" fill="none" xmlns="http://www.w3.org/2000/svg">
<path d="M5.74407 2.86135C5.74407 2.20494 6.00483 1.57542 6.46898 1.11126C6.93313 0.647111 7.56266 0.386353 8.21907 0.386353H19.7691C20.4255 0.386353 21.055 0.647111 21.5192 1.11126C21.9833 1.57542 22.2441 2.20494 22.2441 2.86135V3.68635H23.0691C24.1631 3.68635 25.2123 4.12095 25.9859 4.89454C26.7595 5.66812 27.1941 6.71733 27.1941 7.81135V16.0614C27.1941 16.7178 26.9333 17.3473 26.4692 17.8114C26.005 18.2756 25.3755 18.5364 24.7191 18.5364H22.2441V21.0114C22.2441 21.6678 21.9833 22.2973 21.5192 22.7614C21.055 23.2256 20.4255 23.4864 19.7691 23.4864H8.21907C7.56266 23.4864 6.93313 23.2256 6.46898 22.7614C6.00483 22.2973 5.74407 21.6678 5.74407 21.0114V18.5364H3.26907C2.61266 18.5364 1.98313 18.2756 1.51898 17.8114C1.05483 17.3473 0.794067 16.7178 0.794067 16.0614V7.81135C0.794067 6.71733 1.22866 5.66812 2.00225 4.89454C2.77584 4.12095 3.82505 3.68635 4.91907 3.68635H5.74407V2.86135ZM20.5941 2.86135C20.5941 2.64255 20.5071 2.43271 20.3524 2.27799C20.1977 2.12327 19.9879 2.03635 19.7691 2.03635H8.21907C8.00026 2.03635 7.79042 2.12327 7.6357 2.27799C7.48099 2.43271 7.39407 2.64255 7.39407 2.86135V3.68635H20.5941V2.86135ZM7.39407 14.4114V21.0114C7.39407 21.2302 7.48099 21.44 7.6357 21.5947C7.79042 21.7494 8.00026 21.8364 8.21907 21.8364H19.7691C19.9879 21.8364 20.1977 21.7494 20.3524 21.5947C20.5071 21.44 20.5941 21.2302 20.5941 21.0114V14.4114C20.5941 14.1925 20.5071 13.9827 20.3524 13.828C20.1977 13.6733 19.9879 13.5864 19.7691 13.5864H8.21907C8.00026 13.5864 7.79042 13.6733 7.6357 13.828C7.48099 13.9827 7.39407 14.1925 7.39407 14.4114Z" fill="#40B0F0"/>
</svg>
