<svg width="24" height="25" viewBox="0 0 24 25" fill="none" xmlns="http://www.w3.org/2000/svg">
<path d="M12 0.886353C6.1748 0.886353 1.32018 5.03745 0.22998 10.5426H3.56104C4.5874 6.84147 7.97206 4.12073 12 4.12073C14.4214 4.12073 16.6095 5.10463 18.1934 6.69299L14.3438 10.5426H24V0.886353L20.4844 4.40197C18.3131 2.22997 15.314 0.886353 12 0.886353ZM0 15.2301V24.8864L3.51562 21.3707C5.68692 23.5427 8.68604 24.8864 12 24.8864C17.8252 24.8864 22.6798 20.7353 23.77 15.2301H20.439C19.4126 18.9312 16.0279 21.652 12 21.652C9.57862 21.652 7.39052 20.6681 5.80664 19.0797L9.65624 15.2301H0V15.2301Z" fill="#40B0F0"/>
</svg>
