<svg width="25" height="26" viewBox="0 0 25 26" fill="none" xmlns="http://www.w3.org/2000/svg">
<path d="M9.16667 0.49947C8.38933 0.480881 7.61613 0.617933 6.89254 0.902563C6.16894 1.18719 5.50958 1.61365 4.95323 2.15686C4.39688 2.70006 3.95478 3.34905 3.65293 4.06562C3.35108 4.7822 3.19559 5.55191 3.19559 6.32947C3.19559 7.10703 3.35108 7.87674 3.65293 8.59332C3.95478 9.30989 4.39688 9.95887 4.95323 10.5021C5.50958 11.0453 6.16894 11.4717 6.89254 11.7564C7.61613 12.041 8.38933 12.1781 9.16667 12.1595C9.944 12.1781 10.7172 12.041 11.4408 11.7564C12.1644 11.4717 12.8238 11.0453 13.3801 10.5021C13.9365 9.95887 14.3786 9.30989 14.6804 8.59332C14.9823 7.87674 15.1377 7.10703 15.1377 6.32947C15.1377 5.55191 14.9823 4.7822 14.6804 4.06562C14.3786 3.34905 13.9365 2.70006 13.3801 2.15686C12.8238 1.61365 12.1644 1.18719 11.4408 0.902563C10.7172 0.617933 9.944 0.480881 9.16667 0.49947V0.49947Z" fill="white"/>
<path d="M5.83333 15.49C4.28624 15.49 2.80251 16.1046 1.70854 17.1985C0.614582 18.2925 0 19.7762 0 21.3233L0 25.485H18.3333V21.3233C18.3333 19.7762 17.7188 18.2925 16.6248 17.1985C15.5308 16.1046 14.0471 15.49 12.5 15.49H5.83333Z" fill="white"/>
<path d="M20.8333 17.1667H20V25.5H25V21.3334C25 20.2283 24.561 19.1685 23.7796 18.3871C22.9982 17.6057 21.9384 17.1667 20.8333 17.1667Z" fill="white"/>
<path d="M19.1667 7.16669C18.0616 7.16669 17.0018 7.60567 16.2204 8.38708C15.439 9.16848 15 10.2283 15 11.3334C15 12.4384 15.439 13.4982 16.2204 14.2796C17.0018 15.061 18.0616 15.5 19.1667 15.5C20.2717 15.5 21.3315 15.061 22.1129 14.2796C22.8943 13.4982 23.3333 12.4384 23.3333 11.3334C23.3333 10.2283 22.8943 9.16848 22.1129 8.38708C21.3315 7.60567 20.2717 7.16669 19.1667 7.16669V7.16669Z" fill="white"/>
</svg>
