<svg width="25" height="26" viewBox="0 0 25 26" fill="none" xmlns="http://www.w3.org/2000/svg">
<path d="M8.43155 25.1966H2.93155C1.41905 25.1966 0.181549 23.9591 0.181549 22.4466V3.19656C0.181549 1.68406 1.41905 0.446564 2.93155 0.446564H8.43155C9.94405 0.446564 11.1815 1.68406 11.1815 3.19656V22.4466C11.1815 23.9591 9.94405 25.1966 8.43155 25.1966ZM16.6815 25.1966H22.1815C23.694 25.1966 24.9315 23.9591 24.9315 22.4466V15.5716C24.9315 14.0591 23.694 12.8216 22.1815 12.8216H16.6815C15.169 12.8216 13.9315 14.0591 13.9315 15.5716V22.4466C13.9315 23.9591 15.169 25.1966 16.6815 25.1966ZM24.9315 7.32156V3.19656C24.9315 1.68406 23.694 0.446564 22.1815 0.446564H16.6815C15.169 0.446564 13.9315 1.68406 13.9315 3.19656V7.32156C13.9315 8.83406 15.169 10.0716 16.6815 10.0716H22.1815C23.694 10.0716 24.9315 8.83406 24.9315 7.32156Z" fill="white"/>
</svg>
